<svg id="Layer_1" data-name="Layer 1" xmlns="http://www.w3.org/2000/svg" xmlns:xlink="http://www.w3.org/1999/xlink" viewBox="0 0 364.79 255.66" width="100%" height="100%" class="illustration styles_illustrationTablet__1DWOa"><defs><linearGradient id="linear-gradient" x1="-3085.75" y1="148.18" x2="-3077.56" y2="37.79" gradientTransform="translate(-2899.08 312.71) rotate(180)" gradientUnits="userSpaceOnUse"><stop offset="0.01"></stop><stop offset="0.08" stop-opacity="0.69"></stop><stop offset="0.21" stop-opacity="0.32"></stop><stop offset="1" stop-opacity="0"></stop></linearGradient><linearGradient id="linear-gradient-2" x1="206.65" y1="48.57" x2="56.3" y2="550.31" gradientTransform="matrix(1, 0, 0, -1, 0, 352)" xlink:href="#linear-gradient"></linearGradient><linearGradient id="linear-gradient-3" x1="156.17" y1="234.54" x2="151.7" y2="196.71" gradientTransform="matrix(1, 0, 0, -1, 0, 352)" xlink:href="#linear-gradient"></linearGradient><linearGradient id="linear-gradient-4" x1="181.09" y1="308.59" x2="221.08" y2="298.64" gradientTransform="matrix(1, 0, 0, -1, -18.37, 312.71)" xlink:href="#linear-gradient"></linearGradient><linearGradient id="linear-gradient-5" x1="507.02" y1="320.44" x2="544.3" y2="473.66" gradientTransform="matrix(0.96, 0.27, 0.27, -0.96, -347.62, 334.71)" xlink:href="#linear-gradient"></linearGradient><linearGradient id="linear-gradient-6" x1="530.75" y1="349.38" x2="501.03" y2="389.87" gradientTransform="matrix(0.96, 0.27, 0.27, -0.96, -347.62, 334.71)" gradientUnits="userSpaceOnUse"><stop offset="0.01" stop-color="#fff"></stop><stop offset="1" stop-color="#fff" stop-opacity="0"></stop></linearGradient><linearGradient id="linear-gradient-7" x1="500.56" y1="341.17" x2="520.06" y2="421.33" gradientTransform="matrix(0.96, 0.27, 0.27, -0.96, -347.62, 334.71)" xlink:href="#linear-gradient"></linearGradient><linearGradient id="linear-gradient-8" x1="502.82" y1="371.15" x2="530.87" y2="338.35" gradientTransform="matrix(0.96, 0.27, 0.27, -0.96, -365.99, 295.42)" xlink:href="#linear-gradient"></linearGradient><linearGradient id="linear-gradient-9" x1="511.82" y1="368.32" x2="518.22" y2="348.57" gradientTransform="matrix(0.96, 0.27, 0.27, -0.96, -365.99, 295.42)" xlink:href="#linear-gradient"></linearGradient><linearGradient id="linear-gradient-10" x1="484.5" y1="358.59" x2="559.68" y2="356.72" gradientTransform="matrix(0.96, 0.27, 0.27, -0.96, -347.62, 334.71)" xlink:href="#linear-gradient"></linearGradient></defs><title>10</title><path d="M176.32,55.92c-2.85,1.32-5.66,2.76-8.4,4.32-32.16,18.31-54.66,52.66-89.86,64.07C68.54,127.4,58.3,128.24,50.6,135a82.92,82.92,0,0,0-14.37,17.27,113.36,113.36,0,0,0-16.4,43.54c-4.81,30,1.92,63.78,25.79,84.33,18,15.45,44.65,16.24,67.12,12.06,12.88-2.39,25.24-7.06,38-10.12a157.57,157.57,0,0,1,68-1.21c14.84,3,29.17,8.16,44,11.34,10.67,2.29,21.76,3.56,32.64,2.15,10.44-1.35,18.49-6.33,28-10.35,18.1-7.67,36.4-17.45,47.94-33.94a67.55,67.55,0,0,0,11.58-44.14,74.46,74.46,0,0,0-18.12-42.07c-4.6-5.27-10.6-9.94-12.83-16.66s-2.6-14.55-3.29-21.45c-1.53-15.1-3.34-30.65-10.71-43.92-8.2-14.77-22.71-25.33-38.52-31.28s-32.9-7.65-49.79-7.85C224.56,42.4,198.9,45.48,176.32,55.92Z" transform="translate(-18.37 -39.29)" fill="#BB6eF5" opacity="0.18" style="isolation: isolate;"></path><polygon points="144.19 223.68 220.38 223.68 206.9 175.23 155.56 175.23 144.19 223.68" fill="#BB6eF5"></polygon><polygon points="144.19 223.68 220.38 223.68 206.9 175.23 155.56 175.23 144.19 223.68" fill="url(#linear-gradient)"></polygon><path d="M314.78,85V210a13.67,13.67,0,0,1-13.67,13.67H103.66A13.67,13.67,0,0,1,90,210h0V85a13.67,13.67,0,0,1,13.67-13.67H301.1A13.67,13.67,0,0,1,314.78,85Z" transform="translate(-18.37 -39.29)" fill="#BB6eF5"></path><path d="M314.78,85V194.62H90V85a13.68,13.68,0,0,1,13.67-13.68H301.1A13.7,13.7,0,0,1,314.78,85Z" transform="translate(-18.37 -39.29)" fill="#473f47"></path><path d="M311.4,87.65V191H93.4V87.65a13.19,13.19,0,0,1,13.27-13.12H298.13A13.19,13.19,0,0,1,311.4,87.65Z" transform="translate(-18.37 -39.29)" fill="#fff"></path><path d="M311.4,87.65V191H93.4V87.65a13.19,13.19,0,0,1,13.27-13.12H298.13A13.19,13.19,0,0,1,311.4,87.65Z" transform="translate(-18.37 -39.29)" fill="#BB6eF5" opacity="0.18" style="isolation: isolate;"></path><path d="M125.83,147.41c-2.14-8.42-5.44-16.55-7.13-25.08s-1.7-17.25-1.61-25.93a25.93,25.93,0,0,1,1.06-8.4c.95-2.67,3-5.13,5.72-5.85L127.82,108c.77,5.07,1.56,10.2,3.46,15s5,9.22,9.5,11.73a179.28,179.28,0,0,1-3-22.38c-.3-4.11-.1-9,3.29-11.31,3-2.09,7.43-1,10,1.63s3.75,6.29,4.5,9.88c1.08,5.17,1.53,10.58,3.85,15.32.79,1.63,2.87,3.32,4.14,2a3.25,3.25,0,0,0,.49-.77L178,101.53c1.28-2.54,2.5-5.81.68-8-1.38-1.65-3.83-1.78-6-1.81a170,170,0,0,1-41-5.7c9.35-4.59,20-5.46,30.45-5.8,8.59-.28,17.59-.16,25.19,3.87a3,3,0,0,1,1.06.79,3.15,3.15,0,0,1,.51,1.6,53.89,53.89,0,0,1-5.2,30.57c-3.1,6.22-7.39,11.79-10.68,17.92-9.06,16.84-10.08,36.92-8,55.93-8.51-.92-14,1.38-22.56.45-2.19-.24-5.7-.73-7.88-.39-1.29.21-7.73.79-9-.06,0,0,2.77-12.32,2.92-14.76A94.2,94.2,0,0,0,125.83,147.41Z" transform="translate(-18.37 -39.29)" fill="url(#linear-gradient-2)"></path><path d="M162.51,141.51c-.79,0,1.65-5.15,1.79-5.38a56.6,56.6,0,0,1,6.15-8.22c2-2.31,4-4.69,6.19-6.82,2-2,4.57-4.63,7.72-4,2.37.5,3.79,3.15,3.69,5.58s-1.35,4.63-2.66,6.68c-2.63,4.11-5.45,8-8.31,12Z" transform="translate(-18.37 -39.29)" fill="#fff"></path><path d="M144.28,144.28c.76.17-.57-5.39-.65-5.64a56.93,56.93,0,0,0-4.33-9.3c-1.5-2.69-2.93-5.41-4.66-8-1.59-2.34-3.53-5.47-6.74-5.48-2.42,0-4.36,2.3-4.76,4.69s.37,4.82,1.23,7.09c1.73,4.57,3.69,9,5.68,13.43Z" transform="translate(-18.37 -39.29)" fill="#fff"></path><path d="M138.22,133.15h30.84a8,8,0,0,1,8.21,7.79v.36s-5.88,24-6,32.06c0,4.41,1.39,17.6,1.39,17.6H134.58s1.76-13.78,1.72-18.4c-.06-7.87-6.29-31.26-6.29-31.26a8,8,0,0,1,7.85-8.15Z" transform="translate(-18.37 -39.29)" fill="#fff"></path><path d="M195,87.82a5.3,5.3,0,0,0,.16-2.65,4.15,4.15,0,0,0-1.42-2,7.35,7.35,0,0,0-6-1.68,2.94,2.94,0,0,0-1.23.5,3.82,3.82,0,0,0-.83,1c-1.08,1.69-2.19,3.73-1.49,5.61a29.64,29.64,0,0,0,1.64,2.63c.32.61.48,1.29.78,1.91.77,1.56,3.73,3.65,5.54,2.49.9-.57,1.24-2.51,1.57-3.45C194.18,90.78,194.62,89.31,195,87.82Z" transform="translate(-18.37 -39.29)" fill="#fca89e"></path><path d="M118.1,85.14a5.18,5.18,0,0,1-.16-2.65,4.15,4.15,0,0,1,1.42-2,7.35,7.35,0,0,1,6-1.68,2.94,2.94,0,0,1,1.23.5,3.82,3.82,0,0,1,.83,1c1.07,1.69,2.19,3.72,1.49,5.61a29.64,29.64,0,0,1-1.64,2.63c-.32.61-.48,1.29-.78,1.91-.77,1.56-3.73,3.65-5.55,2.49-.89-.57-1.23-2.51-1.56-3.45C118.91,88.1,118.47,86.63,118.1,85.14Z" transform="translate(-18.37 -39.29)" fill="#fca89e"></path><path d="M158.39,137.65a3.52,3.52,0,0,1-3.83,3.07c-3.78-.18-4.06-3.07-4.06-3.07v-15h7.89Z" transform="translate(-18.37 -39.29)" fill="#fca89e"></path><path d="M150.5,130.06s4.94,7.7,7.89,4v-6Z" transform="translate(-18.37 -39.29)" fill="url(#linear-gradient-3)"></path><path d="M147.18,126.24c2,6.12,11.8,6.3,15.09,1.44,1.91-2.82,2.14-6.49,1.54-9.84a34.23,34.23,0,0,0-3-9.53c-1-1.9-2-3.59-4.33-3.86a13.73,13.73,0,0,0-7.53,1.68,10.72,10.72,0,0,0-5.17,12.55,20.45,20.45,0,0,0,1.49,3.43A27.12,27.12,0,0,1,147.18,126.24Z" transform="translate(-18.37 -39.29)" fill="#fca89e"></path><path d="M163.45,107.71a8.33,8.33,0,0,1-1.82,2.72,10.62,10.62,0,0,1-5.86,2.84c-3.21.51-6.47-.06-9.71-.32a2.82,2.82,0,0,1-1.91,2.28,48.22,48.22,0,0,0,1.95,6.65c.8,2.12,1.94,4.09,2.8,6.16-2.67-1.84-4.72-5-6.67-7.53a14.62,14.62,0,0,1-2.45-4.06,5,5,0,0,1,.44-4.56,19.94,19.94,0,0,1,1.59-2.26,4.6,4.6,0,0,0,1.76-2.69c.12-1.13-.52-2.22-.61-3.36a.7.7,0,0,1,.08-.47.78.78,0,0,1,.37-.22l2.31-.86a5.91,5.91,0,0,0-.81-1.34,8.69,8.69,0,0,1,4.41-1,8.67,8.67,0,0,0-1.21-2,3.8,3.8,0,0,1,3.21.18c1.08.42,2.12.94,3.16,1.45a14.23,14.23,0,0,0,.05-2.61,5.63,5.63,0,0,1,3.84,1.11,12.11,12.11,0,0,1,3,2.38,6.59,6.59,0,0,1,1.36,2.4c.28,1,.79,1.82,1,2.79A4,4,0,0,1,163.45,107.71Z" transform="translate(-18.37 -39.29)" fill="#473f47"></path><path d="M145.06,122.22a2.62,2.62,0,0,0-1.72,1.09,2,2,0,0,0-.09,1.48,4.24,4.24,0,0,0,.75,1.3,2.94,2.94,0,0,0,.61.61,2.51,2.51,0,0,0,1.31.33,9.55,9.55,0,0,0,1.07,0,1.18,1.18,0,0,0,.52-.13,1,1,0,0,0,.36-.51,3.62,3.62,0,0,0,0-2.3,4.14,4.14,0,0,0-1-1.88C146.42,121.76,145.67,122.05,145.06,122.22Z" transform="translate(-18.37 -39.29)" fill="#fca89e"></path><path d="M178.17,116.86a11.75,11.75,0,0,0-.83,5.18A5.93,5.93,0,0,0,188,124.73a12,12,0,0,0,1.73-4.91q2.34-12.3,4.24-24.66c-1.46-.39-6-2.45-7.23-1.63s-2.43,6-3,7.52c-1,2.65-2,5.3-2.9,8C179.94,111.51,179.4,114.54,178.17,116.86Z" transform="translate(-18.37 -39.29)" fill="#fff"></path><path d="M121.44,117.12a11.64,11.64,0,0,0,1.38,5.06,5.93,5.93,0,0,0,10.81-1.94,11.7,11.7,0,0,0-.45-5.19q-2.93-12.17-6.29-24.21c-1.49.24-6.43.21-7.26,1.49s.24,6.42.34,8.1q.27,4.23.65,8.45C120.85,111.51,121.6,114.49,121.44,117.12Z" transform="translate(-18.37 -39.29)" fill="#fff"></path><rect x="105.12" y="6.76" width="66.11" height="42.66" fill="#BB6eF5"></rect><g style="isolation: isolate;"><text transform="translate(124.44 25.53)" font-size="9.51" fill="#fff" font-family="Arial-BoldMT, Arial" font-weight="700" style="isolation: isolate;">NEW </text><text transform="translate(109.79 36.94)" font-size="9.51" fill="#fff" font-family="Arial-BoldMT, Arial" font-weight="700" style="isolation: isolate;">CAM</text><text transform="translate(133.56 36.94)" font-size="9.51" fill="#fff" font-family="Arial-BoldMT, Arial" font-weight="700" letter-spacing="-0.1em" style="isolation: isolate;">P</text><text transform="translate(139.62 36.94)" font-size="9.51" fill="#fff" font-family="Arial-BoldMT, Arial" font-weight="700" style="isolation: isolate;">AIGN</text></g><circle cx="172" cy="6.43" r="6.43" fill="#BB6eF5"></circle><circle cx="172" cy="6.43" r="6.43" fill="url(#linear-gradient-4)"></circle><rect x="186.85" y="114.2" width="33.54" height="2.33" rx="1.16" fill="#BB6eF5"></rect><rect x="226.11" y="114.2" width="33.54" height="2.33" rx="1.16" fill="#BB6eF5"></rect><rect x="186.85" y="119.45" width="52.95" height="2.33" rx="1.16" fill="#BB6eF5"></rect><rect x="186.85" y="124.69" width="33.54" height="2.33" rx="1.16" fill="#BB6eF5"></rect><rect x="226.11" y="124.69" width="33.54" height="2.33" rx="1.16" fill="#BB6eF5"></rect><path d="M249.05,132.17c-12.77-.41-23-4.63-22.84-9.41,0-.33.13-4.38.23-4.7,0,0,.52.14.52.13,1.47-4.27,10.79-3.73,22.65-3.35,10.42.34,19.57-.16,22.35,3.48.63.82.52,5.06.49,5.94C272.29,129,261.82,132.59,249.05,132.17Z" transform="translate(-18.37 -39.29)" fill="#BB6eF5"></path><path d="M249.05,132.17c-12.77-.41-23-4.63-22.84-9.41,0-.33.18-4.88.18-4.88,1.47-4.27,11.36-3.42,23.22-3,10.42.34,20,1.24,22.8,4.88,0,0,.07,3.66,0,4.54C272.29,129,261.82,132.59,249.05,132.17Z" transform="translate(-18.37 -39.29)" fill="url(#linear-gradient-5)"></path><path d="M249,128c-12.76-.41-22.78-4.54-22.62-9.33v-.94c1.47-4.27,11.3-7.44,23.17-7.06,10.41.34,19.13,3.21,21.91,6.85a4,4,0,0,1,.92,2.57C272.24,124.9,261.76,128.45,249,128Z" transform="translate(-18.37 -39.29)" fill="#BB6eF5"></path><path d="M271.47,117.55l-21.18.5-23.92.56a4,4,0,0,1,0-.85h0c1.12-3.25,7-5.92,15.07-6.78a59.23,59.23,0,0,1,8.1-.28C260,111,268.69,113.91,271.47,117.55Z" transform="translate(-18.37 -39.29)" fill="url(#linear-gradient-6)"></path><path d="M238.15,126.66l12.14-8.61-23.92.56S225.17,123.42,238.15,126.66Z" transform="translate(-18.37 -39.29)" fill="url(#linear-gradient-7)"></path><path d="M250.84,116.09l-24.14.56a5.67,5.67,0,0,1,.18-1h0C228,112.41,234,109.88,242,109Z" transform="translate(-18.37 -39.29)" fill="#BB6eF5"></path><polygon points="231.92 78.76 232.47 76.8 208.33 77.36 231.92 78.76" fill="#BB6eF5"></polygon><polygon points="231.92 78.76 232.47 76.8 208.33 77.36 208.02 78.47 231.92 78.76" fill="url(#linear-gradient-8)"></polygon><polygon points="219.78 87.37 220.34 85.36 232.28 77.46 231.92 78.76 219.78 87.37" fill="url(#linear-gradient-9)"></polygon><path d="M250.65,116.75l-24.26,1s2.49,5.1,12.32,6.89Z" transform="translate(-18.37 -39.29)" fill="#BB6eF5"></path><path d="M238.71,124.65l-1.63,5.88s-10-2.52-10.83-7.16l.14-5.61S229.29,124.11,238.71,124.65Z" transform="translate(-18.37 -39.29)" fill="#BB6eF5"></path><path d="M238.71,124.65l-1.63,5.88s-10-2.52-10.83-7.16l.14-5.61S229.29,124.11,238.71,124.65Z" transform="translate(-18.37 -39.29)" fill="url(#linear-gradient-10)"></path><polygon points="219.68 74.64 216.29 64.18 204.02 60 204.13 59.68 216.56 63.92 216.58 64 220 74.54 219.68 74.64" fill="#BB6eF5"></polygon><path d="M221.13,100a1.44,1.44,0,0,1,.61-2.82l.16,0a1.44,1.44,0,0,1-.61,2.82Zm.69-2.45a1.11,1.11,0,1,0,.77,1.37h0a1.11,1.11,0,0,0-.77-1.33Z" transform="translate(-18.37 -39.29)" fill="#BB6eF5"></path><polygon points="234.87 72.91 234.65 72.66 243.08 65.34 243.16 65.36 255.91 68.13 255.84 68.46 243.17 65.7 234.87 72.91" fill="#BB6eF5"></polygon><path d="M274.9,109a1.44,1.44,0,0,1,.77-2.78,1.46,1.46,0,0,1,1,1.78h0A1.44,1.44,0,0,1,274.9,109Zm.68-2.46a1.11,1.11,0,1,0,.77,1.35A1.12,1.12,0,0,0,275.58,106.54Z" transform="translate(-18.37 -39.29)" fill="#BB6eF5"></path><path d="M282.7,140.55a1.48,1.48,0,1,1,1.82-1.16c0,.05,0,.11,0,.16A1.44,1.44,0,0,1,282.7,140.55Zm.68-2.45a1.11,1.11,0,1,0,.77,1.37h0a1.11,1.11,0,0,0-.76-1.36Z" transform="translate(-18.37 -39.29)" fill="#BB6eF5"></path><polygon points="263.44 99.69 251.17 96.27 251.13 96.24 241.19 85.02 241.44 84.8 251.35 95.98 263.53 99.37 263.44 99.69" fill="#BB6eF5"></polygon><path d="M208.42,122.13a1.44,1.44,0,1,1,1.78-1A1.43,1.43,0,0,1,208.42,122.13Zm.69-2.46a1.11,1.11,0,1,0,.77,1.37A1.12,1.12,0,0,0,209.11,119.67Z" transform="translate(-18.37 -39.29)" fill="#BB6eF5"></path><polygon points="203.9 85.37 191.62 81.95 191.71 81.63 203.9 85.02 218.16 80.56 218.26 80.88 203.9 85.37" fill="#BB6eF5"></polygon><path d="M290.1,136.57h9.62a2,2,0,0,1,2,2h0a2,2,0,0,1-2,2H290.1a2,2,0,0,1-2-2h0A2,2,0,0,1,290.1,136.57Z" transform="translate(-18.37 -39.29)" fill="#BB6eF5"></path><path d="M281.41,104.53H291a2,2,0,0,1,2,2h0a2,2,0,0,1-2,2h-9.62a2,2,0,0,1-2-2h0A2,2,0,0,1,281.41,104.53Z" transform="translate(-18.37 -39.29)" fill="#BB6eF5"></path><path d="M215.6,91.29h9.62a2,2,0,0,1,2,2h0a2,2,0,0,1-2,2H215.6a2,2,0,0,1-2-2h0A2,2,0,0,1,215.6,91.29Z" transform="translate(-18.37 -39.29)" fill="#BB6eF5"></path><path d="M198.28,124.64h9.62a2,2,0,0,1,2,2h0a2,2,0,0,1-2,2h-9.62a2,2,0,0,1-2-2h0A2,2,0,0,1,198.28,124.64Z" transform="translate(-18.37 -39.29)" fill="#BB6eF5"></path></svg>